<svg width="674" height="562" viewBox="0 0 674 562" fill="none" xmlns="http://www.w3.org/2000/svg">
<g opacity="0.8">
<rect width="60.2334" height="60.243" transform="matrix(-0.866025 -0.5 0 1 146.43 330.95)" fill="#F4EFFF"/>
<rect width="160.469" height="60.243" transform="matrix(0.866025 -0.5 -0.866025 -0.5 146.441 331.085)" fill="white"/>
<rect width="170.129" height="60.243" transform="matrix(0.866025 -0.5 0 1 146.43 330.955)" fill="#B392FF"/>
<rect width="97.2368" height="95.6691" transform="matrix(-0.876877 -0.480715 -0.00342289 0.999994 146.136 331.385)" fill="#7C7C7C" fill-opacity="0.1"/>
<rect width="193.621" height="97.2523" transform="matrix(0.868242 -0.496141 -0.876877 -0.480715 146.148 331.601)" fill="#4D4D4D" fill-opacity="0.1"/>
<rect width="196.738" height="95.6691" transform="matrix(0.868242 -0.496141 -0.00342289 0.999994 146.134 331.393)" fill="url(#paint0_linear_264_3600)" fill-opacity="0.25"/>
<rect width="124.73" height="124.75" transform="matrix(-0.866025 -0.5 0 1 325.903 326.208)" fill="#F4EFFF"/>
<rect width="120.563" height="124.75" transform="matrix(0.866025 -0.5 -0.866025 -0.5 325.925 326.486)" fill="white"/>
<rect width="121.371" height="124.75" transform="matrix(0.866025 -0.5 0 1 325.903 326.219)" fill="#B392FF"/>
<rect width="201.356" height="198.11" transform="matrix(-0.876877 -0.480715 -0.00342289 0.999994 325.293 327.107)" fill="#7C7C7C" fill-opacity="0.1"/>
<rect width="197.318" height="201.388" transform="matrix(0.868242 -0.496141 -0.876877 -0.480715 325.317 327.556)" fill="#4D4D4D" fill-opacity="0.1"/>
<rect width="198.641" height="198.11" transform="matrix(0.868242 -0.496141 -0.00342289 0.999994 325.289 327.124)" fill="url(#paint1_linear_264_3600)" fill-opacity="0.25"/>
<rect width="72.1387" height="72.1502" transform="matrix(-0.866025 -0.5 0 1 327.35 174.597)" fill="#F4EFFF"/>
<rect width="69.7283" height="72.1502" transform="matrix(0.866025 -0.5 -0.866025 -0.5 327.364 174.759)" fill="white"/>
<rect width="70.1957" height="72.1502" transform="matrix(0.866025 -0.5 0 1 327.35 174.603)" fill="#B392FF"/>
<rect width="116.456" height="114.578" transform="matrix(-0.876877 -0.480715 -0.00342289 0.999994 326.998 175.118)" fill="#7C7C7C" fill-opacity="0.1"/>
<rect width="114.121" height="116.475" transform="matrix(0.868242 -0.496141 -0.876877 -0.480715 327.012 175.377)" fill="#4D4D4D" fill-opacity="0.1"/>
<rect width="114.886" height="114.578" transform="matrix(0.868242 -0.496141 -0.00342289 0.999994 326.995 175.127)" fill="url(#paint2_linear_264_3600)" fill-opacity="0.25"/>
<rect width="60.2334" height="92.4723" transform="matrix(-0.866025 -0.5 0 1 491.228 323.967)" fill="#F4EFFF"/>
<rect width="58.2208" height="60.243" transform="matrix(0.866025 -0.5 -0.866025 -0.5 491.239 324.101)" fill="white"/>
<rect width="58.6111" height="98.5" transform="matrix(0.866025 -0.5 0 1 491.228 323.972)" fill="#B392FF"/>
<rect width="97.2368" height="119.413" transform="matrix(-0.876877 -0.480715 -0.00342289 0.999994 490.934 324.401)" fill="#7C7C7C" fill-opacity="0.1"/>
<rect width="95.287" height="97.2523" transform="matrix(0.868242 -0.496141 -0.876877 -0.480715 490.947 324.618)" fill="#4D4D4D" fill-opacity="0.1"/>
<rect width="95.9258" height="120.113" transform="matrix(0.868242 -0.496141 -0.00342289 0.999994 490.932 324.409)" fill="url(#paint3_linear_264_3600)" fill-opacity="0.25"/>
<circle cx="26.243" cy="26.243" r="26.243" transform="matrix(-0.955215 0.295914 0.221338 -0.975197 517.138 185.558)" fill="white"/>
<path d="M522.947 159.966C524.433 153.416 523.472 147.625 519.712 144.144L531.946 155.804C535.706 159.284 537.369 165 535.882 171.549L522.947 159.966Z" fill="#8B5CF6"/>
<path d="M522.946 159.965C519.738 174.1 505.914 189.034 492.07 193.323L505.71 205.666C519.555 201.377 532.667 185.68 535.875 171.546L522.946 159.965Z" fill="#AE8AFF"/>
<path d="M476.047 191.319C479.807 194.8 485.656 195.311 492.071 193.323L505.704 205.666C499.288 207.654 491.096 206.522 487.335 203.042L476.047 191.319Z" fill="#8B5CF6"/>
<circle cx="51.6013" cy="51.6013" r="51.6013" transform="matrix(-0.955215 0.295914 0.221338 -0.975197 523.8 197.938)" fill="#4D4D4D" fill-opacity="0.1"/>
<path d="M535.225 147.616C538.148 134.737 536.258 123.35 528.864 116.505L547.798 134.031C555.193 140.875 557.082 152.263 554.159 165.141L535.225 147.616Z" fill="#4D4D4D" fill-opacity="0.2"/>
<path d="M535.219 147.614C528.911 175.406 501.73 204.772 474.507 213.205L493.442 230.731C520.664 222.298 547.846 192.932 554.153 165.14L535.219 147.614Z" fill="#4D4D4D" fill-opacity="0.2"/>
<path d="M443.003 209.265C450.397 216.109 461.897 217.114 474.511 213.207L493.446 230.733C480.831 234.64 469.332 233.635 461.938 226.791L443.003 209.265Z" fill="#4D4D4D" fill-opacity="0.2"/>
<path d="M463.594 190.912L467.932 183.854L477.321 183.782L472.983 190.84L463.594 190.912ZM492.479 143.917L496.818 136.859L506.207 136.787L501.868 143.845L492.479 143.917ZM471.43 185.876C467.863 185.903 465.02 185.369 462.899 184.273C460.79 183.158 459.483 181.577 458.976 179.532C458.482 177.468 458.86 175.026 460.112 172.206L470.192 170.899C469.391 173.208 469.558 175.041 470.694 176.398C471.852 177.755 473.812 178.423 476.574 178.402C479.174 178.382 481.645 177.846 483.987 176.794C486.352 175.741 488.004 174.451 488.944 172.921C489.582 171.882 489.727 171.032 489.377 170.372C489.063 169.691 488.244 169.141 486.921 168.722L476.621 165.581C470.678 163.773 469.4 160.115 472.786 154.606C474.377 152.018 476.47 149.767 479.065 147.855C481.684 145.942 484.619 144.465 487.869 143.426C491.154 142.366 494.585 141.833 498.163 141.825C501.43 141.839 504.039 142.326 505.991 143.287C507.955 144.228 509.222 145.613 509.792 147.443C510.397 149.253 510.284 151.469 509.451 154.09L498.882 155.634C499.331 154.382 499.408 153.289 499.112 152.355C498.828 151.401 498.193 150.664 497.206 150.145C496.255 149.606 494.997 149.323 493.434 149.296C491.939 149.268 490.444 149.465 488.948 149.886C487.475 150.307 486.142 150.893 484.947 151.644C483.788 152.375 482.925 153.201 482.359 154.122C481.732 155.142 481.696 156.02 482.251 156.757C482.818 157.475 484.043 158.09 485.927 158.602L493.393 160.652C497.125 161.697 499.392 163.133 500.192 164.961C501.015 166.789 500.493 169.223 498.625 172.262C496.986 174.928 494.752 177.277 491.923 179.308C489.094 181.34 485.903 182.935 482.351 184.094C478.822 185.253 475.181 185.847 471.43 185.876Z" fill="#939393" fill-opacity="0.09"/>
<path d="M506.843 136.428L503.438 141.968C504.533 142.21 505.508 142.541 506.362 142.961L506.361 142.961C508.37 143.924 509.67 145.343 510.255 147.217C510.875 149.072 510.756 151.336 509.91 153.999L509.793 154.369L509.309 154.44L498.74 155.985L498.308 156.048L498.428 155.714C498.859 154.511 498.93 153.467 498.648 152.578L498.647 152.575C498.376 151.666 497.772 150.964 496.829 150.468L496.823 150.465C496.03 150.015 495.009 149.749 493.755 149.673L493.203 149.651C491.756 149.625 490.322 149.814 488.898 150.215C487.492 150.617 486.239 151.171 485.127 151.87C484.067 152.538 483.291 153.284 482.777 154.119C482.222 155.022 482.179 155.806 482.69 156.486L482.689 156.486C483.153 157.071 484.104 157.602 485.583 158.065L486.251 158.259L493.717 160.309L493.719 160.309C497.481 161.362 499.817 162.822 500.649 164.72C501.508 166.626 500.952 169.152 499.043 172.258C497.365 174.988 495.068 177.407 492.149 179.504C489.237 181.595 485.959 183.232 482.33 184.416L482.33 184.415C480.41 185.045 478.463 185.509 476.489 185.811L473.181 191.193L462.957 191.271L466.296 185.839C464.86 185.567 463.601 185.153 462.524 184.597L462.522 184.596C460.369 183.456 459.029 181.839 458.51 179.745L458.51 179.744C458.003 177.628 458.393 175.131 459.668 172.261L459.822 171.912L460.264 171.855L470.343 170.549L470.76 170.494L470.648 170.817C469.871 173.055 470.037 174.816 471.126 176.119C472.238 177.421 474.119 178.066 476.793 178.046C479.327 178.026 481.699 177.505 483.921 176.506L483.924 176.505C486.168 175.506 487.671 174.316 488.526 172.924C489.115 171.966 489.235 171.209 488.925 170.622L488.921 170.615C488.636 169.997 487.878 169.472 486.586 169.062L486.586 169.062L476.289 165.922L476.289 165.923C473.273 165.005 471.407 163.607 470.744 161.709C470.079 159.807 470.633 157.432 472.368 154.609C473.994 151.963 476.147 149.644 478.831 147.666L478.835 147.663C481.369 145.812 484.186 144.361 487.273 143.308L487.894 143.103C489.674 142.529 491.49 142.109 493.342 141.838L496.619 136.506L506.843 136.428Z" stroke="#E0DFDF" stroke-opacity="0.27" stroke-width="0.835715"/>
</g>
<defs>
<linearGradient id="paint0_linear_264_3600" x1="110.157" y1="101.466" x2="61.9862" y2="-19.0251" gradientUnits="userSpaceOnUse">
<stop stop-color="#1D1D1D"/>
<stop offset="1" stop-color="#454242"/>
</linearGradient>
<linearGradient id="paint1_linear_264_3600" x1="111.223" y1="210.114" x2="-30.667" y2="37.0644" gradientUnits="userSpaceOnUse">
<stop stop-color="#1D1D1D"/>
<stop offset="1" stop-color="#454242"/>
</linearGradient>
<linearGradient id="paint2_linear_264_3600" x1="64.3264" y1="121.521" x2="-17.7365" y2="21.4365" gradientUnits="userSpaceOnUse">
<stop stop-color="#1D1D1D"/>
<stop offset="1" stop-color="#454242"/>
</linearGradient>
<linearGradient id="paint3_linear_264_3600" x1="53.7104" y1="127.391" x2="-33.9805" y2="42.2073" gradientUnits="userSpaceOnUse">
<stop stop-color="#1D1D1D"/>
<stop offset="1" stop-color="#454242"/>
</linearGradient>
</defs>
</svg>
