<svg width="2000" height="2000" viewBox="0 0 2000 2000" fill="none" xmlns="http://www.w3.org/2000/svg">
<path d="M1408.77 758.83C1383.69 718.52 1345.59 690.17 1294.44 675.05C1289.43 673.57 1284.45 672.27 1279.52 671.13C1273.73 664.9 1267.58 658.93 1261.09 653.24C1201.44 600.89 1115.09 573.2 1011.39 573.2H649.681V700C638.551 707.35 628.001 715.88 618.201 725.54C600.371 743.14 586.431 763.31 576.471 784.95V500H1011.38C1133.12 500 1236.16 533.97 1309.37 598.24C1345.6 630.03 1373.59 668.43 1392.61 712.39C1399.08 727.34 1404.47 742.84 1408.76 758.83H1408.77Z" fill="url(#paint0_linear_736_1819)"/>
<path d="M1394.78 998.97C1373.19 1050.93 1338.61 1095.7 1291.84 1131.55C1215.09 1190.36 1110.9 1221.44 990.501 1221.44H864.171V1499.27H576.481V954.66C582.431 967.53 589.851 979.92 598.721 991.62C613.471 1011.06 630.751 1027.1 649.691 1039.71V1426.08H790.971V1148.25H990.511C1093.09 1148.25 1184.22 1121.73 1247.16 1073.57C1282.18 1071.55 1317 1060.56 1347.81 1040.71C1365.83 1029.11 1381.6 1014.96 1394.79 998.98L1394.78 998.97Z" fill="url(#paint1_linear_736_1819)"/>
<path d="M1333.5 1033.67C1264.01 1078.42 1173.36 1076.27 1108.55 1025.42C1097.86 1017.03 1085.71 1006.24 1073.22 994.64L1127.08 944.18C1133.41 950.49 1139.44 956.23 1144.88 961.05C1184.46 996.04 1230.59 1002.14 1279.05 980.44C1325.14 959.81 1352.74 913.3 1349.26 863.01C1348.06 845.57 1344.27 829.86 1337.92 815.96L1414.1 812.77C1415.48 817.19 1416.72 821.7 1417.86 826.32C1437.32 905.25 1402.83 989.01 1333.5 1033.66V1033.67Z" fill="url(#paint2_linear_736_1819)"/>
<path d="M783.521 1064.99C720.551 1068.67 657.171 1041.94 615.191 986.611C556.511 909.271 564.521 799.931 633.881 731.461C667.161 698.621 709.671 679.521 753.401 675.061L754.821 748.231C743.561 750.201 732.111 753.781 720.531 758.921C675.311 779.011 647.521 825.321 649.521 873.911C651.591 924.531 682.661 967.891 730.401 984.541C745.401 989.761 759.861 992.451 773.801 992.661L783.531 1064.98L783.521 1064.99Z" fill="url(#paint3_linear_736_1819)"/>
<path d="M1127.08 944.19L1073.22 994.65C1051.65 974.64 1029.02 952.16 1011.06 935.27C1029.64 916.76 1045.68 900.8 1066.65 879.91C1082.9 897.53 1106.54 923.72 1127.08 944.18V944.19Z" fill="#9275E0"/>
<path d="M1339.68 709.35C1288.75 693.78 1233.63 719.05 1187.51 752.69C1169.27 759.02 1152.19 770.21 1136.37 785.84C1061.74 859.55 987.911 934.07 912.711 1007.21C875.621 1043.29 829.681 1062.32 783.511 1064.99L773.781 992.67C806.591 993.17 836.381 979.95 862.731 953.99C938.021 879.86 1012.13 804.54 1088.16 731.16C1142.8 678.44 1208.86 661.36 1282.33 683.06C1303.85 689.42 1322.97 698.22 1339.67 709.36L1339.68 709.35Z" fill="url(#paint4_linear_736_1819)"/>
<path d="M1414.11 812.78L1337.93 815.97C1325.11 787.83 1301.87 767.17 1268.53 754.97C1239.62 744.4 1212.51 743.99 1187.52 752.69C1233.64 719.05 1288.75 693.79 1339.69 709.35C1375.64 733.34 1400.45 768.17 1414.11 812.78Z" fill="url(#paint5_linear_736_1819)"/>
<path d="M989.871 807.389C971.211 824.239 954.021 839.779 931.671 859.969C917.001 844.039 891.521 814.889 870.111 793.339C864.611 787.789 859.391 782.749 854.671 778.569C824.581 751.839 790.671 741.939 754.801 748.229L753.381 675.059C801.241 670.179 850.551 682.819 890.821 714.099C901.361 722.279 913.481 733.209 926.011 745.119C948.261 766.249 971.791 790.389 989.861 807.389H989.871Z" fill="url(#paint6_linear_736_1819)"/>
<path d="M913.311 903.9C896.671 920.45 879.531 936.52 862.831 953.02C847.001 968.65 829.831 980.4 811.601 986.73C765.481 1020.37 710.461 1045.08 659.521 1029.51C676.231 1040.65 695.341 1049.45 716.861 1055.81C790.321 1077.51 856.391 1060.43 911.031 1007.71C927.371 991.94 943.621 976.06 959.821 960.14C945.421 940.04 931.231 920.44 913.321 903.91L913.311 903.9Z" fill="url(#paint7_linear_736_1819)"/>
<defs>
<linearGradient id="paint0_linear_736_1819" x1="992.631" y1="428.93" x2="992.631" y2="663.63" gradientUnits="userSpaceOnUse">
<stop stop-color="#9275E0"/>
<stop offset="1" stop-color="#6C43D0"/>
</linearGradient>
<linearGradient id="paint1_linear_736_1819" x1="986.801" y1="1553.56" x2="984.691" y2="1003.8" gradientUnits="userSpaceOnUse">
<stop stop-color="#9275E0"/>
<stop offset="1" stop-color="#6C43D0"/>
</linearGradient>
<linearGradient id="paint2_linear_736_1819" x1="1128.22" y1="939.14" x2="1410.06" y2="939.14" gradientUnits="userSpaceOnUse">
<stop stop-color="#9275E0"/>
<stop offset="1" stop-color="#6C43D0"/>
</linearGradient>
<linearGradient id="paint3_linear_736_1819" x1="677.951" y1="1005.34" x2="691.991" y2="692.941" gradientUnits="userSpaceOnUse">
<stop stop-color="#9275E0"/>
<stop offset="1" stop-color="#6C43D0"/>
</linearGradient>
<linearGradient id="paint4_linear_736_1819" x1="777.201" y1="1022.17" x2="1265.99" y2="686.92" gradientUnits="userSpaceOnUse">
<stop stop-color="#9275E0"/>
<stop offset="1" stop-color="#6C43D0"/>
</linearGradient>
<linearGradient id="paint5_linear_736_1819" x1="1075.76" y1="638.59" x2="1425.43" y2="810.65" gradientUnits="userSpaceOnUse">
<stop stop-color="#9275E0"/>
<stop offset="1" stop-color="#6C43D0"/>
</linearGradient>
<linearGradient id="paint6_linear_736_1819" x1="980.321" y1="824.029" x2="746.021" y2="694.149" gradientUnits="userSpaceOnUse">
<stop stop-color="#9275E0"/>
<stop offset="1" stop-color="#6C43D0"/>
</linearGradient>
<linearGradient id="paint7_linear_736_1819" x1="1032.59" y1="829.33" x2="698.801" y2="1086.08" gradientUnits="userSpaceOnUse">
<stop stop-color="#9275E0"/>
<stop offset="1" stop-color="#6C43D0"/>
</linearGradient>
</defs>
</svg>
